<svg xmlns="http://www.w3.org/2000/svg" viewBox="0 0 500 500" width="100%" height="100%">
  <circle cx="250" cy="250" r="250" fill="#000000" />
  
  <g transform="translate(135, 85)">
    <path d="M 0,55 A 55,55 0 0,1 55,0 L 110,0 L 110,110 L 55,110 A 55,55 0 0,1 0,55 Z" fill="#F24E1E" />
    
    <path d="M 110,0 L 165,0 A 55,55 0 0,1 220,55 A 55,55 0 0,1 165,110 L 110,110 Z" fill="#FF7262" />
    
    <path d="M 0,165 A 55,55 0 0,1 55,110 L 110,110 L 110,220 L 55,220 A 55,55 0 0,1 0,165 Z" fill="#A259FF" />
    
    <circle cx="165" cy="165" r="55" fill="#1ABC9C" style="display:none;" /> <circle cx="165" cy="165" r="55" fill="#0ACF83" style="display:none;" /> <circle cx="165" cy="165" r="55" fill="#19B5FE" style="display:none;" /> <circle cx="165" cy="165" r="55" fill="#2F80ED" style="display:none;" /> <circle cx="165" cy="165" r="55" fill="#5551FF" style="display:none;" /> <circle cx="165" cy="165" r="55" fill="#1CB0F6" />
    
    <path d="M 0,275 A 55,55 0 0,1 55,220 L 110,220 L 110,275 A 55,55 0 0,1 55,330 A 55,55 0 0,1 0,275 Z" fill="#0ACF83" />
  </g>
</svg>
