<svg xmlns="http://www.w3.org/2000/svg" viewBox="0 0 500 500" width="100%" height="100%">
  <circle cx="250" cy="250" r="250" fill="#001E36" />
  
  <g fill="#31A8FF">
    <path d="M 148,155 L 240,155 C 275,155 295,175 295,208 C 295,241 275,261 240,261 L 194,261 L 194,345 L 148,345 Z M 194,194 L 194,222 L 235,222 C 251,222 258,214 258,208 C 258,202 251,194 235,194 Z" />
    
    <path d="M 314,298 C 314,328 340,350 373,350 C 405,350 426,331 426,303 C 426,252 355,251 355,228 C 355,216 366,208 382,208 C 397,208 411,216 416,226 L 443,205 C 431,184 409,173 381,173 C 350,173 328,191 328,220 C 328,272 400,270 400,294 C 400,307 388,315 372,315 C 352,315 340,305 337,294 Z" />
  </g>
</svg>
